<svg width="46" height="20" viewBox="0 0 46 20" fill="none" xmlns="http://www.w3.org/2000/svg">
<path d="M42.9084 7.65832L39.4084 11.1583C39.2917 11.275 39.175 11.3333 39 11.3333C38.825 11.3333 38.7084 11.275 38.5917 11.1583L35.0917 7.65832C34.8584 7.42499 34.8584 7.07499 35.0917 6.84166C35.325 6.60832 35.675 6.60832 35.9084 6.84166L39 9.93332L42.0917 6.84166C42.325 6.60832 42.675 6.60832 42.9084 6.84166C43.1417 7.07499 43.1417 7.42499 42.9084 7.65832Z" fill="black"/>
<mask id="mask0" mask-type="alpha" maskUnits="userSpaceOnUse" x="34" y="6" width="10" height="6">
<path d="M42.9084 7.65832L39.4084 11.1583C39.2917 11.275 39.175 11.3333 39 11.3333C38.825 11.3333 38.7084 11.275 38.5917 11.1583L35.0917 7.65832C34.8584 7.42499 34.8584 7.07499 35.0917 6.84166C35.325 6.60832 35.675 6.60832 35.9084 6.84166L39 9.93332L42.0917 6.84166C42.325 6.60832 42.675 6.60832 42.9084 6.84166C43.1417 7.07499 43.1417 7.42499 42.9084 7.65832Z" fill="white"/>
</mask>
<g mask="url(#mask0)">
<path fill-rule="evenodd" clip-rule="evenodd" d="M32 2H46V16H32V2Z" fill="black"/>
</g>
<rect width="28" height="18" fill="white"/>
<rect width="4" height="4" fill="#005E96"/>
<rect x="6" width="4" height="4" fill="#005E96"/>
<rect x="6" y="6" width="4" height="4" fill="#005E96"/>
<rect y="6" width="4" height="4" fill="#005E96"/>
<path fill-rule="evenodd" clip-rule="evenodd" d="M28 0H10V2H28" fill="#005E96"/>
<path fill-rule="evenodd" clip-rule="evenodd" d="M28 4V6H10V4H28Z" fill="#005E96"/>
<path fill-rule="evenodd" clip-rule="evenodd" d="M28 8H10V10H28V8Z" fill="#005E96"/>
<path fill-rule="evenodd" clip-rule="evenodd" d="M28 12V14H0V12H28Z" fill="#005E96"/>
<path fill-rule="evenodd" clip-rule="evenodd" d="M28 16V18H0V16H28Z" fill="#005E96"/>
</svg>
