<svg width="18" height="18" viewBox="0 0 19 19" fill="none" xmlns="http://www.w3.org/2000/svg">
<path fill-rule="evenodd" clip-rule="evenodd" d="M10.1827 0.64452V7.19141H14.8997V4.00906H13.3568V5.60023H11.7256V2.2357H16.7238V8.84885H1.80954V2.2357H6.80779V5.60023H5.17651V4.00906H3.63364V7.19141H8.35058V0.64452H0.266663V8.84885V10.44V18.6444H8.35058V12.0975H3.63364V15.2797H5.17651V13.6886H6.80779V17.0533H1.80954V10.44H16.7238V17.0533H11.7256V13.6886H13.3568V15.2797H14.8997V12.0975H10.1827V18.6444H18.2667V0.64452H10.1827Z" fill="white"/>
<mask id="mask0" mask-type="alpha" maskUnits="userSpaceOnUse" x="0" y="0" width="19" height="19">
<path fill-rule="evenodd" clip-rule="evenodd" d="M10.1827 0.64452V7.19141H14.8997V4.00906H13.3568V5.60023H11.7256V2.2357H16.7238V8.84885H1.80954V2.2357H6.80779V5.60023H5.17651V4.00906H3.63364V7.19141H8.35058V0.64452H0.266663V8.84885V10.44V18.6444H8.35058V12.0975H3.63364V15.2797H5.17651V13.6886H6.80779V17.0533H1.80954V10.44H16.7238V17.0533H11.7256V13.6886H13.3568V15.2797H14.8997V12.0975H10.1827V18.6444H18.2667V0.64452H10.1827Z" fill="white"/>
</mask>
<g mask="url(#mask0)">
<rect x="0.266663" y="0.64444" width="18" height="18" fill="white"/>
</g>
</svg>
