<svg width="219" height="116" viewBox="0 0 219 116" fill="none" xmlns="http://www.w3.org/2000/svg">
<path fill-rule="evenodd" clip-rule="evenodd" d="M11.5047 115.739L15.4227 106.197L19.2567 115.739L24.5222 100.889L23.1739 100.341L19.3827 109.652L15.6122 100.299L11.8202 109.652L9.65075 103.375C9.60875 103.22 9.58732 103.094 9.58732 102.996C9.58732 102.518 10.1427 102.279 11.2519 102.279L10.7882 100.847H5.14303V102.279C5.78932 102.279 6.25217 102.357 6.53332 102.511C6.63189 102.567 6.71589 102.651 6.78618 102.764C6.84189 102.876 6.90532 103.01 6.97646 103.164L11.5047 115.739ZM28.7356 113.106C28.2299 112.63 27.9693 112.04 27.9556 111.337L27.3865 110.579H34.3173C34.3448 108.697 33.8605 107.293 32.8636 106.366C32.0913 105.635 31.0936 105.271 29.8722 105.271C28.5942 105.271 27.5348 105.699 26.6922 106.556C25.7785 107.496 25.3225 108.732 25.3225 110.263C25.3225 111.709 25.7442 112.931 26.5868 113.928C27.4293 114.925 28.5033 115.423 29.8088 115.423C30.3145 115.423 30.8905 115.346 31.5368 115.192V113.801H30.5673C29.8371 113.801 29.2268 113.57 28.7356 113.106ZM32.8782 109.294C32.8782 109.139 32.8576 108.95 32.8148 108.725C32.6048 107.461 31.9585 106.829 30.8776 106.829C29.5713 106.829 28.8196 107.644 28.6233 109.273L29.2551 109.294H32.8782ZM48.6824 102.806C49.441 102.806 49.8901 103.291 50.0307 104.259L51.4415 103.965L51.0207 100.847H41.9838L41.6898 102.3C42.6584 102.3 43.1427 102.68 43.1427 103.438V115.213H45.7338V109.694C45.7338 109.357 45.9155 109.146 46.2807 109.062L49.7144 108.219V107.208H45.649V102.806H48.6824ZM54.4537 114.602C53.7517 113.9 53.4003 112.847 53.4003 111.442V103.353C53.4003 102.497 53.0077 102.125 52.2208 102.237L52.3897 101.079L55.3177 100.531L55.7805 100.91V112.474L57.0448 114.097L55.2748 115.423L54.4537 114.602ZM62.669 115.423C65.8001 115.423 67.3661 113.704 67.3661 110.263C67.3661 108.648 66.9521 107.405 66.1233 106.534C65.309 105.692 64.157 105.27 62.669 105.27C61.2641 105.27 60.155 105.699 59.3407 106.555C58.4981 107.44 58.0773 108.676 58.0773 110.263C58.0773 111.962 58.4844 113.247 59.2987 114.118C60.0993 114.989 61.223 115.423 62.669 115.423ZM64.9018 110.284C64.9018 107.939 64.151 106.766 62.6484 106.766C61.9593 106.766 61.4193 107.11 61.0258 107.798C60.689 108.402 60.5201 109.223 60.5201 110.263C60.5201 112.706 61.229 113.927 62.6484 113.927C64.151 113.927 64.9018 112.713 64.9018 110.284ZM71.3307 112.109V105.898H69.7251C69.7251 105.898 69.1785 110.811 69.076 112.25C68.9735 113.688 69.6227 115.548 71.8432 115.548C74.0637 115.548 75.1571 113.758 75.1571 113.758L76.4895 115.548L78.1633 114.179L77.0019 112.636V105.968L76.5235 105.442L73.7905 106.179V107.232C73.7905 107.232 74.8496 107.758 74.8496 108.39V111.969C74.8496 112.846 73.3805 113.864 72.6973 113.864C72.0141 113.864 71.3307 113.092 71.3307 112.109ZM85.6352 108.03C85.2135 107.539 84.736 107.293 84.2029 107.293C83.29 107.293 82.5177 107.672 81.8852 108.43L82.054 109.968V113.064C82.054 113.472 82.1877 113.739 82.4543 113.865C82.6515 113.949 83.0303 113.991 83.5917 113.991L83.3389 115.213H79.6737V107.988C79.6737 107.159 79.2803 106.787 78.4943 106.871L78.6632 105.712L81.5912 105.165L82.054 105.566V106.956C82.0678 106.956 82.0823 106.948 82.0969 106.935C82.4475 106.457 82.876 106.065 83.3817 105.755C83.9149 105.432 84.4343 105.271 84.94 105.271C85.6558 105.271 86.2532 105.481 86.7306 105.903L85.846 107.967L85.6352 108.03ZM90.3526 103.438C90.5634 103.2 90.6688 102.932 90.6688 102.637C90.6688 102.315 90.5565 102.041 90.332 101.816C90.1074 101.592 89.84 101.478 89.5314 101.478C89.2083 101.478 88.9348 101.592 88.7103 101.816C88.4857 102.041 88.3725 102.315 88.3725 102.637C88.3725 102.947 88.4857 103.213 88.7103 103.438C88.9348 103.662 89.2083 103.775 89.5314 103.775C89.8545 103.775 90.128 103.662 90.3526 103.438ZM89.426 114.601C88.724 113.872 88.3725 112.818 88.3725 111.442V107.988C88.3725 107.131 87.98 106.759 87.1931 106.872L87.362 105.713L90.29 105.165L90.7537 105.545V112.475L92.0171 114.096L90.2265 115.423L89.426 114.601ZM98.9682 114.644C99.6702 114.153 100.022 113.458 100.022 112.558C100.022 111.828 99.6282 111.133 98.8422 110.473C98.7436 110.389 98.5113 110.22 98.1462 109.968L96.6513 108.978C95.8645 108.459 95.4788 108.037 95.4925 107.714C95.5062 107.152 95.9142 106.871 96.7148 106.871C97.4725 106.871 97.9568 107.04 98.1676 107.377L98.4205 108.325C98.4908 108.648 98.7505 108.809 99.2005 108.809C99.3968 108.809 99.6068 108.789 99.8322 108.746V106.534C99.1576 105.692 98.1051 105.271 96.6719 105.271C95.5911 105.271 94.7408 105.502 94.1236 105.965C93.5193 106.401 93.2031 107.026 93.1756 107.841C93.1473 108.627 93.5125 109.343 94.2711 109.989C94.4528 110.158 95.1771 110.635 96.4405 111.421C97.2128 111.898 97.5993 112.334 97.5993 112.727C97.5993 113.486 96.9531 113.865 95.6613 113.865H93.3651V115.086C94.1236 115.311 95.0082 115.423 96.0196 115.423C97.2693 115.423 98.2525 115.164 98.9682 114.644ZM108.3 108.936C108.103 107.56 107.549 106.872 106.636 106.872C105.864 106.872 105.084 107.356 104.298 108.325L104.509 109.736V115.213H102.128V103.354C102.128 102.497 101.735 102.125 100.948 102.237L101.117 101.078L104.045 100.531L104.509 100.91V106.808C105.323 105.783 106.327 105.271 107.521 105.271C108.461 105.271 109.206 105.565 109.753 106.155C110.329 106.801 110.617 107.693 110.617 108.83V115.213H109.121L108.3 108.936ZM121.192 103.438C121.402 103.2 121.507 102.932 121.507 102.637C121.507 102.315 121.394 102.041 121.169 101.816C120.946 101.592 120.677 101.478 120.37 101.478C120.047 101.478 119.773 101.592 119.549 101.816C119.322 102.041 119.21 102.315 119.21 102.637C119.21 102.947 119.322 103.213 119.549 103.438C119.773 103.662 120.047 103.775 120.37 103.775C120.693 103.775 120.965 103.662 121.192 103.438ZM120.264 114.601C119.561 113.872 119.21 112.818 119.21 111.442V107.988C119.21 107.131 118.817 106.759 118.031 106.872L118.2 105.713L121.128 105.165L121.592 105.545V112.475L122.855 114.096L121.064 115.423L120.264 114.601ZM129.049 106.872C129.96 106.872 130.516 107.56 130.712 108.936L131.533 115.213H133.028V108.81C133.028 107.671 132.733 106.787 132.145 106.155C131.596 105.565 130.86 105.271 129.933 105.271C128.766 105.271 127.776 105.783 126.962 106.808H126.919V105.544L126.456 105.165L123.528 105.713L123.361 106.872C124.147 106.759 124.54 107.131 124.54 107.988V115.213H126.919V109.736L126.709 108.325C127.495 107.356 128.275 106.872 129.049 106.872ZM146.74 115.129C145.842 115.325 145.042 115.423 144.339 115.423C143.357 115.423 142.578 115.149 142.002 114.601C141.398 114.012 141.123 113.247 141.181 112.306L141.707 102.616L143.56 102.237V105.481H146.551V107.082H143.56V112.411C143.56 113.38 143.968 113.864 144.782 113.864H146.74V115.129ZM153.167 106.872C154.078 106.872 154.633 107.56 154.829 108.936L155.651 115.213H157.146V108.83C157.146 107.693 156.858 106.801 156.282 106.155C155.736 105.565 154.99 105.271 154.051 105.271C152.855 105.271 151.852 105.783 151.037 106.808V100.91L150.574 100.531L147.646 101.078L147.479 102.237C148.265 102.125 148.658 102.497 148.658 103.354V115.213H151.037V109.736L150.827 108.325C151.613 107.356 152.393 106.872 153.167 106.872ZM161.824 111.337C161.836 112.04 162.097 112.63 162.603 113.106C163.093 113.57 163.705 113.801 164.436 113.801H165.405V115.192C164.759 115.346 164.183 115.423 163.677 115.423C162.371 115.423 161.298 114.925 160.453 113.928C159.612 112.931 159.191 111.709 159.191 110.263C159.191 108.732 159.647 107.496 160.559 106.556C161.402 105.699 162.463 105.271 163.74 105.271C164.962 105.271 165.958 105.635 166.73 106.366C167.728 107.293 168.213 108.697 168.185 110.579H161.255L161.824 111.337ZM165.826 108.725C165.868 108.95 165.889 109.139 165.889 109.294H162.265L161.633 109.273C161.831 107.644 162.583 106.829 163.888 106.829C164.969 106.829 165.615 107.461 165.826 108.725ZM187.731 109.757C187.731 111.541 187.248 112.931 186.279 113.928C185.282 114.925 183.904 115.423 182.149 115.423C180.717 115.423 179.523 114.988 178.569 114.118C177.488 113.121 176.947 111.716 176.947 109.905V104.26C176.947 103.529 176.891 103.059 176.779 102.848C176.596 102.469 176.187 102.28 175.557 102.28V100.846H180.464L180.781 102.28C179.812 102.28 179.326 102.645 179.326 103.375V109.652C179.326 110.944 179.517 111.836 179.897 112.327C180.489 113.086 181.228 113.464 182.115 113.464C184.073 113.464 185.144 112.151 185.327 109.525L185.94 100.846H187.731V109.757ZM197.094 114.223C197.886 113.535 198.299 112.608 198.326 111.442C198.341 110.067 197.799 108.922 196.7 108.009C196.587 107.911 195.558 107.3 193.614 106.176C192.5 105.544 191.957 104.856 191.987 104.112C192.015 103.579 192.239 103.172 192.661 102.89C193.067 102.596 193.623 102.462 194.324 102.49C195.266 102.532 195.847 102.75 196.073 103.143C196.17 103.311 196.27 103.732 196.368 104.407C196.439 104.856 196.663 105.081 197.042 105.081C197.279 105.081 197.575 105.018 197.926 104.891V101.774C197.673 101.564 197.237 101.338 196.621 101.1C195.807 100.805 195.026 100.657 194.282 100.657C192.906 100.657 191.804 101.023 190.976 101.754C190.146 102.472 189.733 103.429 189.733 104.624C189.733 105.862 190.272 106.917 191.354 107.788L192.872 108.717L194.367 109.666C195.449 110.342 195.975 111.081 195.947 111.882C195.947 112.304 195.764 112.677 195.398 113C194.978 113.38 194.402 113.57 193.671 113.57L190.069 113.528V115.065C190.785 115.29 191.852 115.402 193.272 115.402C194.901 115.402 196.174 115.01 197.094 114.223ZM213.008 114.686C213.008 114.869 212.93 115.037 212.776 115.192C212.594 115.346 212.411 115.424 212.229 115.424C211.878 115.424 211.632 115.268 211.491 114.96L209.702 111.253H203.593L202.771 113.253C202.729 113.352 202.707 113.45 202.707 113.549C202.707 113.914 203.072 114.097 203.804 114.097L203.423 115.213H198.812V114.097C199.597 114.097 200.074 113.9 200.243 113.506L204.667 102.764C204.708 102.651 204.731 102.56 204.731 102.49C204.731 102.097 204.414 101.9 203.781 101.9L204.225 100.784H207.362L212.945 114.391C212.987 114.489 213.008 114.588 213.008 114.686ZM208.838 109.462H204.329L206.374 104.217L208.838 109.462Z" fill="black"/>
<mask id="mask0" mask-type="alpha" maskUnits="userSpaceOnUse" x="5" y="100" width="209" height="16">
<path fill-rule="evenodd" clip-rule="evenodd" d="M11.5047 115.739L15.4227 106.197L19.2567 115.739L24.5222 100.889L23.1739 100.341L19.3827 109.652L15.6122 100.299L11.8202 109.652L9.65075 103.375C9.60875 103.22 9.58732 103.094 9.58732 102.996C9.58732 102.518 10.1427 102.279 11.2519 102.279L10.7882 100.847H5.14303V102.279C5.78932 102.279 6.25217 102.357 6.53332 102.511C6.63189 102.567 6.71589 102.651 6.78618 102.764C6.84189 102.876 6.90532 103.01 6.97646 103.164L11.5047 115.739ZM28.7356 113.106C28.2299 112.63 27.9693 112.04 27.9556 111.337L27.3865 110.579H34.3173C34.3448 108.697 33.8605 107.293 32.8636 106.366C32.0913 105.635 31.0936 105.271 29.8722 105.271C28.5942 105.271 27.5348 105.699 26.6922 106.556C25.7785 107.496 25.3225 108.732 25.3225 110.263C25.3225 111.709 25.7442 112.931 26.5868 113.928C27.4293 114.925 28.5033 115.423 29.8088 115.423C30.3145 115.423 30.8905 115.346 31.5368 115.192V113.801H30.5673C29.8371 113.801 29.2268 113.57 28.7356 113.106ZM32.8782 109.294C32.8782 109.139 32.8576 108.95 32.8148 108.725C32.6048 107.461 31.9585 106.829 30.8776 106.829C29.5713 106.829 28.8196 107.644 28.6233 109.273L29.2551 109.294H32.8782ZM48.6824 102.806C49.441 102.806 49.8901 103.291 50.0307 104.259L51.4415 103.965L51.0207 100.847H41.9838L41.6898 102.3C42.6584 102.3 43.1427 102.68 43.1427 103.438V115.213H45.7338V109.694C45.7338 109.357 45.9155 109.146 46.2807 109.062L49.7144 108.219V107.208H45.649V102.806H48.6824ZM54.4537 114.602C53.7517 113.9 53.4003 112.847 53.4003 111.442V103.353C53.4003 102.497 53.0077 102.125 52.2208 102.237L52.3897 101.079L55.3177 100.531L55.7805 100.91V112.474L57.0448 114.097L55.2748 115.423L54.4537 114.602ZM62.669 115.423C65.8001 115.423 67.3661 113.704 67.3661 110.263C67.3661 108.648 66.9521 107.405 66.1233 106.534C65.309 105.692 64.157 105.27 62.669 105.27C61.2641 105.27 60.155 105.699 59.3407 106.555C58.4981 107.44 58.0773 108.676 58.0773 110.263C58.0773 111.962 58.4844 113.247 59.2987 114.118C60.0993 114.989 61.223 115.423 62.669 115.423ZM64.9018 110.284C64.9018 107.939 64.151 106.766 62.6484 106.766C61.9593 106.766 61.4193 107.11 61.0258 107.798C60.689 108.402 60.5201 109.223 60.5201 110.263C60.5201 112.706 61.229 113.927 62.6484 113.927C64.151 113.927 64.9018 112.713 64.9018 110.284ZM71.3307 112.109V105.898H69.7251C69.7251 105.898 69.1785 110.811 69.076 112.25C68.9735 113.688 69.6227 115.548 71.8432 115.548C74.0637 115.548 75.1571 113.758 75.1571 113.758L76.4895 115.548L78.1633 114.179L77.0019 112.636V105.968L76.5235 105.442L73.7905 106.179V107.232C73.7905 107.232 74.8496 107.758 74.8496 108.39V111.969C74.8496 112.846 73.3805 113.864 72.6973 113.864C72.0141 113.864 71.3307 113.092 71.3307 112.109ZM85.6352 108.03C85.2135 107.539 84.736 107.293 84.2029 107.293C83.29 107.293 82.5177 107.672 81.8852 108.43L82.054 109.968V113.064C82.054 113.472 82.1877 113.739 82.4543 113.865C82.6515 113.949 83.0303 113.991 83.5917 113.991L83.3389 115.213H79.6737V107.988C79.6737 107.159 79.2803 106.787 78.4943 106.871L78.6632 105.712L81.5912 105.165L82.054 105.566V106.956C82.0678 106.956 82.0823 106.948 82.0969 106.935C82.4475 106.457 82.876 106.065 83.3817 105.755C83.9149 105.432 84.4343 105.271 84.94 105.271C85.6558 105.271 86.2532 105.481 86.7306 105.903L85.846 107.967L85.6352 108.03ZM90.3526 103.438C90.5634 103.2 90.6688 102.932 90.6688 102.637C90.6688 102.315 90.5565 102.041 90.332 101.816C90.1074 101.592 89.84 101.478 89.5314 101.478C89.2083 101.478 88.9348 101.592 88.7103 101.816C88.4857 102.041 88.3725 102.315 88.3725 102.637C88.3725 102.947 88.4857 103.213 88.7103 103.438C88.9348 103.662 89.2083 103.775 89.5314 103.775C89.8545 103.775 90.128 103.662 90.3526 103.438ZM89.426 114.601C88.724 113.872 88.3725 112.818 88.3725 111.442V107.988C88.3725 107.131 87.98 106.759 87.1931 106.872L87.362 105.713L90.29 105.165L90.7537 105.545V112.475L92.0171 114.096L90.2265 115.423L89.426 114.601ZM98.9682 114.644C99.6702 114.153 100.022 113.458 100.022 112.558C100.022 111.828 99.6282 111.133 98.8422 110.473C98.7436 110.389 98.5113 110.22 98.1462 109.968L96.6513 108.978C95.8645 108.459 95.4788 108.037 95.4925 107.714C95.5062 107.152 95.9142 106.871 96.7148 106.871C97.4725 106.871 97.9568 107.04 98.1676 107.377L98.4205 108.325C98.4908 108.648 98.7505 108.809 99.2005 108.809C99.3968 108.809 99.6068 108.789 99.8322 108.746V106.534C99.1576 105.692 98.1051 105.271 96.6719 105.271C95.5911 105.271 94.7408 105.502 94.1236 105.965C93.5193 106.401 93.2031 107.026 93.1756 107.841C93.1473 108.627 93.5125 109.343 94.2711 109.989C94.4528 110.158 95.1771 110.635 96.4405 111.421C97.2128 111.898 97.5993 112.334 97.5993 112.727C97.5993 113.486 96.9531 113.865 95.6613 113.865H93.3651V115.086C94.1236 115.311 95.0082 115.423 96.0196 115.423C97.2693 115.423 98.2525 115.164 98.9682 114.644ZM108.3 108.936C108.103 107.56 107.549 106.872 106.636 106.872C105.864 106.872 105.084 107.356 104.298 108.325L104.509 109.736V115.213H102.128V103.354C102.128 102.497 101.735 102.125 100.948 102.237L101.117 101.078L104.045 100.531L104.509 100.91V106.808C105.323 105.783 106.327 105.271 107.521 105.271C108.461 105.271 109.206 105.565 109.753 106.155C110.329 106.801 110.617 107.693 110.617 108.83V115.213H109.121L108.3 108.936ZM121.192 103.438C121.402 103.2 121.507 102.932 121.507 102.637C121.507 102.315 121.394 102.041 121.169 101.816C120.946 101.592 120.677 101.478 120.37 101.478C120.047 101.478 119.773 101.592 119.549 101.816C119.322 102.041 119.21 102.315 119.21 102.637C119.21 102.947 119.322 103.213 119.549 103.438C119.773 103.662 120.047 103.775 120.37 103.775C120.693 103.775 120.965 103.662 121.192 103.438ZM120.264 114.601C119.561 113.872 119.21 112.818 119.21 111.442V107.988C119.21 107.131 118.817 106.759 118.031 106.872L118.2 105.713L121.128 105.165L121.592 105.545V112.475L122.855 114.096L121.064 115.423L120.264 114.601ZM129.049 106.872C129.96 106.872 130.516 107.56 130.712 108.936L131.533 115.213H133.028V108.81C133.028 107.671 132.733 106.787 132.145 106.155C131.596 105.565 130.86 105.271 129.933 105.271C128.766 105.271 127.776 105.783 126.962 106.808H126.919V105.544L126.456 105.165L123.528 105.713L123.361 106.872C124.147 106.759 124.54 107.131 124.54 107.988V115.213H126.919V109.736L126.709 108.325C127.495 107.356 128.275 106.872 129.049 106.872ZM146.74 115.129C145.842 115.325 145.042 115.423 144.339 115.423C143.357 115.423 142.578 115.149 142.002 114.601C141.398 114.012 141.123 113.247 141.181 112.306L141.707 102.616L143.56 102.237V105.481H146.551V107.082H143.56V112.411C143.56 113.38 143.968 113.864 144.782 113.864H146.74V115.129ZM153.167 106.872C154.078 106.872 154.633 107.56 154.829 108.936L155.651 115.213H157.146V108.83C157.146 107.693 156.858 106.801 156.282 106.155C155.736 105.565 154.99 105.271 154.051 105.271C152.855 105.271 151.852 105.783 151.037 106.808V100.91L150.574 100.531L147.646 101.078L147.479 102.237C148.265 102.125 148.658 102.497 148.658 103.354V115.213H151.037V109.736L150.827 108.325C151.613 107.356 152.393 106.872 153.167 106.872ZM161.824 111.337C161.836 112.04 162.097 112.63 162.603 113.106C163.093 113.57 163.705 113.801 164.436 113.801H165.405V115.192C164.759 115.346 164.183 115.423 163.677 115.423C162.371 115.423 161.298 114.925 160.453 113.928C159.612 112.931 159.191 111.709 159.191 110.263C159.191 108.732 159.647 107.496 160.559 106.556C161.402 105.699 162.463 105.271 163.74 105.271C164.962 105.271 165.958 105.635 166.73 106.366C167.728 107.293 168.213 108.697 168.185 110.579H161.255L161.824 111.337ZM165.826 108.725C165.868 108.95 165.889 109.139 165.889 109.294H162.265L161.633 109.273C161.831 107.644 162.583 106.829 163.888 106.829C164.969 106.829 165.615 107.461 165.826 108.725ZM187.731 109.757C187.731 111.541 187.248 112.931 186.279 113.928C185.282 114.925 183.904 115.423 182.149 115.423C180.717 115.423 179.523 114.988 178.569 114.118C177.488 113.121 176.947 111.716 176.947 109.905V104.26C176.947 103.529 176.891 103.059 176.779 102.848C176.596 102.469 176.187 102.28 175.557 102.28V100.846H180.464L180.781 102.28C179.812 102.28 179.326 102.645 179.326 103.375V109.652C179.326 110.944 179.517 111.836 179.897 112.327C180.489 113.086 181.228 113.464 182.115 113.464C184.073 113.464 185.144 112.151 185.327 109.525L185.94 100.846H187.731V109.757ZM197.094 114.223C197.886 113.535 198.299 112.608 198.326 111.442C198.341 110.067 197.799 108.922 196.7 108.009C196.587 107.911 195.558 107.3 193.614 106.176C192.5 105.544 191.957 104.856 191.987 104.112C192.015 103.579 192.239 103.172 192.661 102.89C193.067 102.596 193.623 102.462 194.324 102.49C195.266 102.532 195.847 102.75 196.073 103.143C196.17 103.311 196.27 103.732 196.368 104.407C196.439 104.856 196.663 105.081 197.042 105.081C197.279 105.081 197.575 105.018 197.926 104.891V101.774C197.673 101.564 197.237 101.338 196.621 101.1C195.807 100.805 195.026 100.657 194.282 100.657C192.906 100.657 191.804 101.023 190.976 101.754C190.146 102.472 189.733 103.429 189.733 104.624C189.733 105.862 190.272 106.917 191.354 107.788L192.872 108.717L194.367 109.666C195.449 110.342 195.975 111.081 195.947 111.882C195.947 112.304 195.764 112.677 195.398 113C194.978 113.38 194.402 113.57 193.671 113.57L190.069 113.528V115.065C190.785 115.29 191.852 115.402 193.272 115.402C194.901 115.402 196.174 115.01 197.094 114.223ZM213.008 114.686C213.008 114.869 212.93 115.037 212.776 115.192C212.594 115.346 212.411 115.424 212.229 115.424C211.878 115.424 211.632 115.268 211.491 114.96L209.702 111.253H203.593L202.771 113.253C202.729 113.352 202.707 113.45 202.707 113.549C202.707 113.914 203.072 114.097 203.804 114.097L203.423 115.213H198.812V114.097C199.597 114.097 200.074 113.9 200.243 113.506L204.667 102.764C204.708 102.651 204.731 102.56 204.731 102.49C204.731 102.097 204.414 101.9 203.781 101.9L204.225 100.784H207.362L212.945 114.391C212.987 114.489 213.008 114.588 213.008 114.686ZM208.838 109.462H204.329L206.374 104.217L208.838 109.462Z" fill="white"/>
</mask>
<g mask="url(#mask0)">
<path fill-rule="evenodd" clip-rule="evenodd" d="M4.28572 98H214.286V116H4.28572V98Z" fill="#BF0A30"/>
</g>
<path fill-rule="evenodd" clip-rule="evenodd" d="M36.6305 95.44L40.5485 85.8983L44.3825 95.44L49.6479 80.59L48.2997 80.0423L44.5085 89.3525L40.7379 80.0003L36.9459 89.3525L34.7765 83.0757C34.7345 82.9214 34.7131 82.7945 34.7131 82.6968C34.7131 82.2194 35.2685 81.9803 36.3777 81.9803L35.9139 80.548H30.2688V81.9803C30.9151 81.9803 31.3779 82.0583 31.6591 82.2117C31.7577 82.2683 31.8417 82.3523 31.9119 82.4645C31.9677 82.5768 32.0311 82.7105 32.1022 82.8648L36.6305 95.44ZM53.0811 83.1389C53.2919 82.9006 53.3973 82.6331 53.3973 82.3383C53.3973 82.016 53.2851 81.7417 53.0605 81.5171C52.8359 81.2926 52.5685 81.1794 52.2599 81.1794C51.9368 81.1794 51.6633 81.2926 51.4388 81.5171C51.2142 81.7417 51.1011 82.016 51.1011 82.3383C51.1011 82.6477 51.2142 82.9143 51.4388 83.1389C51.6633 83.3634 51.9368 83.4757 52.2599 83.4757C52.5831 83.4757 52.8565 83.3634 53.0811 83.1389ZM52.1545 94.3023C51.4525 93.5729 51.1011 92.5194 51.1011 91.1429V87.6886C51.1011 86.8323 50.7085 86.4603 49.9216 86.5726L50.0905 85.4137L53.0185 84.866L53.4822 85.2457V92.1757L54.7456 93.7974L52.9551 95.1243L52.1545 94.3023ZM59.2741 95.1245C59.9769 95.1245 60.7767 95.026 61.6758 94.8297V93.5654H59.7164C58.9021 93.5654 58.4949 93.0811 58.4949 92.1125V86.7828H61.4864V85.1825H58.4949V81.9383L56.6409 82.3171L56.1147 92.0071C56.0581 92.9483 56.3324 93.7128 56.9367 94.3025C57.5118 94.8503 58.2909 95.1245 59.2741 95.1245ZM69.7642 88.6367C69.5679 87.261 69.0134 86.5727 68.1005 86.5727C67.3282 86.5727 66.5482 87.057 65.7622 88.0256L65.9731 89.4373V94.9136H63.5928V83.055C63.5928 82.1979 63.1994 81.8259 62.4125 81.9382L62.5814 80.7793L65.5094 80.2316L65.9731 80.6113V86.5093C66.7874 85.4842 67.7911 84.9716 68.9851 84.9716C69.9254 84.9716 70.6702 85.2665 71.2179 85.8562C71.7931 86.5025 72.0819 87.3939 72.0819 88.5313V94.9136H70.5854L69.7642 88.6367ZM87.5835 95.1243C89.4238 95.1243 91.2495 94.7309 93.0607 93.9449V87.668H88.3001L87.9418 89.5631H89.2267C90.1121 89.5631 90.5544 89.9411 90.5544 90.6946V92.684C89.501 93.0054 88.5804 93.1657 87.7944 93.1657C86.4178 93.1657 85.3018 92.6754 84.4455 91.694C83.729 90.8669 83.2661 89.9566 83.0553 88.9606C82.9567 88.5123 82.9078 88.0289 82.9078 87.5103C82.9215 86.0669 83.3638 84.8403 84.2347 83.8314C85.1758 82.766 86.3484 82.2329 87.7524 82.2329C88.553 82.2329 89.2344 82.3031 89.7958 82.4437C90.0341 82.514 90.3221 82.6057 90.6598 82.7171C90.9821 82.844 91.3541 82.9983 91.7758 83.1809L92.345 81.4323C90.7293 80.7166 89.1778 80.3583 87.689 80.3583C85.499 80.3583 83.6938 81.0749 82.2753 82.5071C80.8713 83.9111 80.1693 85.688 80.1693 87.836C80.1693 89.9566 80.8575 91.7051 82.2341 93.0809C83.5961 94.4437 85.379 95.1243 87.5835 95.1243ZM101.55 87.731C101.128 87.2399 100.651 86.9939 100.117 86.9939C99.2045 86.9939 98.4322 87.3727 97.7997 88.1313L97.9685 89.669V92.765C97.9685 93.173 98.1022 93.4396 98.3688 93.5656C98.5659 93.6496 98.9448 93.6924 99.5062 93.6924L99.2534 94.9139H95.5882V87.689C95.5882 86.8601 95.1948 86.4881 94.4088 86.5721L94.5777 85.4133L97.5057 84.8664L97.9685 85.2667V86.657C97.9822 86.657 97.9968 86.6493 98.0114 86.6356C98.3619 86.1581 98.7905 85.7656 99.2962 85.4561C99.8294 85.133 100.349 84.9719 100.855 84.9719C101.57 84.9719 102.168 85.1819 102.645 85.6036L101.761 87.6676L101.55 87.731ZM107.048 92.8071C106.542 92.3305 106.281 91.7408 106.267 91.0379L105.7 90.2802H112.63C112.658 88.3979 112.173 86.9939 111.175 86.0665C110.403 85.3362 109.407 84.9719 108.184 84.9719C106.906 84.9719 105.847 85.3997 105.004 86.2568C104.091 87.1971 103.636 88.4331 103.636 89.9639C103.636 91.4099 104.056 92.6322 104.899 93.6291C105.742 94.6259 106.816 95.1239 108.122 95.1239C108.628 95.1239 109.204 95.0468 109.85 94.8925V93.5022H108.88C108.149 93.5022 107.538 93.2708 107.048 92.8071ZM110.333 88.9945C110.333 88.8402 110.313 88.6508 110.271 88.4262C110.06 87.1619 109.414 86.5302 108.332 86.5302C107.026 86.5302 106.276 87.3445 106.078 88.9739L106.709 88.9945H110.333ZM117.495 92.8071C116.989 92.3305 116.728 91.7408 116.716 91.0379L116.147 90.2802H123.077C123.105 88.3979 122.619 86.9939 121.622 86.0665C120.85 85.3362 119.854 84.9719 118.632 84.9719C117.355 84.9719 116.294 85.3997 115.451 86.2568C114.539 87.1971 114.083 88.4331 114.083 89.9639C114.083 91.4099 114.504 92.6322 115.345 93.6291C116.19 94.6259 117.262 95.1239 118.569 95.1239C119.075 95.1239 119.651 95.0468 120.297 94.8925V93.5022H119.328C118.597 93.5022 117.985 93.2708 117.495 92.8071ZM120.78 88.9945C120.78 88.8402 120.76 88.6508 120.718 88.4262C120.507 87.1619 119.861 86.5302 118.779 86.5302C117.475 86.5302 116.723 87.3445 116.525 88.9739L117.157 88.9945H120.78ZM133.208 86.1512C133.503 86.0389 133.65 85.8701 133.65 85.6455V85.1818H131.207L127.457 89.6269V80.6106L126.994 80.2318L124.066 80.7795L123.898 81.9383C124.685 81.8261 125.077 82.1981 125.077 83.0552V94.9138H127.457V91.1638C127.457 91.1089 127.48 91.0523 127.522 90.9958L127.627 90.8483C127.752 90.6803 127.9 90.7078 128.069 90.9323L131.776 94.7243C132.016 95.0192 132.281 95.1666 132.576 95.1666C132.815 95.1666 133.032 95.0681 133.23 94.8718C133.413 94.6609 133.503 94.4432 133.503 94.2186C133.503 94.0361 133.448 93.8681 133.336 93.7129L129.859 89.0998L130.828 88.0043L131.712 86.9938C132.023 86.6432 132.521 86.3612 133.208 86.1512ZM152.46 94.1344C152.46 94.3872 152.355 94.6118 152.144 94.8081C151.935 95.0189 151.703 95.1244 151.451 95.1244C151.169 95.1244 150.93 95.0052 150.736 94.7661L146.136 88.6367H144.668V92.3858C144.668 93.1161 145.152 93.4812 146.121 93.4812L145.805 94.9135H142.055V83.1389C142.055 82.3804 141.578 82.0015 140.623 82.0015L140.918 80.5478H146.343C147.812 80.5478 148.977 80.8924 149.831 81.5807C150.7 82.2827 151.133 83.2375 151.133 84.4444C151.133 86.0875 150.378 87.2609 148.866 87.9621L152.355 93.7555C152.425 93.8678 152.46 93.9947 152.46 94.1344ZM145.805 82.3804C147.617 82.3804 148.528 83.0618 148.543 84.4238C148.558 85.9547 147.608 86.7201 145.7 86.7201H144.561V82.3804H145.805ZM162.592 89.9642C162.592 93.4048 161.026 95.1242 157.896 95.1242C156.447 95.1242 155.324 94.6896 154.525 93.8188C153.71 92.9479 153.302 91.6631 153.302 89.9642C153.302 88.3768 153.723 87.1408 154.567 86.2562C155.381 85.3999 156.491 84.9713 157.896 84.9713C159.384 84.9713 160.535 85.3931 161.35 86.2348C162.178 87.1065 162.592 88.3493 162.592 89.9642ZM157.873 86.4671C159.375 86.4671 160.128 87.6396 160.128 89.9848C160.128 92.4139 159.375 93.6285 157.873 93.6285C156.456 93.6285 155.747 92.4071 155.747 89.9642C155.747 88.9245 155.915 88.1033 156.253 87.4991C156.645 86.8108 157.184 86.4671 157.873 86.4671ZM173.293 89.9642C173.293 93.4048 171.727 95.1242 168.597 95.1242C167.149 95.1242 166.025 94.6896 165.226 93.8188C164.411 92.9479 164.003 91.6631 164.003 89.9642C164.003 88.3768 164.424 87.1408 165.268 86.2562C166.082 85.3999 167.192 84.9713 168.597 84.9713C170.085 84.9713 171.236 85.3931 172.051 86.2348C172.879 87.1065 173.293 88.3493 173.293 89.9642ZM168.574 86.4671C170.077 86.4671 170.829 87.6396 170.829 89.9848C170.829 92.4139 170.077 93.6285 168.574 93.6285C167.157 93.6285 166.448 92.4071 166.448 89.9642C166.448 88.9245 166.616 88.1033 166.954 87.4991C167.346 86.8108 167.885 86.4671 168.574 86.4671ZM180.56 94.8297C179.66 95.026 178.861 95.1245 178.158 95.1245C177.176 95.1245 176.396 94.8503 175.82 94.3025C175.217 93.7128 174.942 92.9483 174.999 92.0071L175.526 82.3171L177.379 81.9383V85.1825H180.369V86.7828H177.379V92.1125C177.379 93.0811 177.787 93.5654 178.601 93.5654H180.56V94.8297ZM187.743 94.3449C188.445 93.8537 188.796 93.1586 188.796 92.2595C188.796 91.5292 188.403 90.834 187.617 90.174C187.518 90.09 187.285 89.9212 186.921 89.6692L185.424 88.6792C184.638 88.1597 184.252 87.738 184.267 87.4149C184.28 86.8535 184.689 86.5723 185.489 86.5723C186.246 86.5723 186.732 86.7412 186.942 87.078L187.195 88.026C187.265 88.3492 187.525 88.5103 187.974 88.5103C188.171 88.5103 188.382 88.4897 188.605 88.4469V86.2355C187.931 85.3929 186.88 84.972 185.447 84.972C184.366 84.972 183.516 85.2035 182.897 85.6663C182.293 86.1017 181.978 86.7266 181.95 87.5417C181.921 88.3277 182.286 89.0443 183.046 89.6897C183.228 89.8586 183.952 90.336 185.214 91.122C185.987 91.5995 186.374 92.0349 186.374 92.4283C186.374 93.1869 185.728 93.5657 184.435 93.5657H182.139V94.7872C182.897 95.0117 183.782 95.124 184.792 95.124C186.042 95.124 187.027 94.8652 187.743 94.3449Z" fill="black"/>
<mask id="mask1" mask-type="alpha" maskUnits="userSpaceOnUse" x="30" y="80" width="159" height="16">
<path fill-rule="evenodd" clip-rule="evenodd" d="M36.6305 95.44L40.5485 85.8983L44.3825 95.44L49.6479 80.59L48.2997 80.0423L44.5085 89.3525L40.7379 80.0003L36.9459 89.3525L34.7765 83.0757C34.7345 82.9214 34.7131 82.7945 34.7131 82.6968C34.7131 82.2194 35.2685 81.9803 36.3777 81.9803L35.9139 80.548H30.2688V81.9803C30.9151 81.9803 31.3779 82.0583 31.6591 82.2117C31.7577 82.2683 31.8417 82.3523 31.9119 82.4645C31.9677 82.5768 32.0311 82.7105 32.1022 82.8648L36.6305 95.44ZM53.0811 83.1389C53.2919 82.9006 53.3973 82.6331 53.3973 82.3383C53.3973 82.016 53.2851 81.7417 53.0605 81.5171C52.8359 81.2926 52.5685 81.1794 52.2599 81.1794C51.9368 81.1794 51.6633 81.2926 51.4388 81.5171C51.2142 81.7417 51.1011 82.016 51.1011 82.3383C51.1011 82.6477 51.2142 82.9143 51.4388 83.1389C51.6633 83.3634 51.9368 83.4757 52.2599 83.4757C52.5831 83.4757 52.8565 83.3634 53.0811 83.1389ZM52.1545 94.3023C51.4525 93.5729 51.1011 92.5194 51.1011 91.1429V87.6886C51.1011 86.8323 50.7085 86.4603 49.9216 86.5726L50.0905 85.4137L53.0185 84.866L53.4822 85.2457V92.1757L54.7456 93.7974L52.9551 95.1243L52.1545 94.3023ZM59.2741 95.1245C59.9769 95.1245 60.7767 95.026 61.6758 94.8297V93.5654H59.7164C58.9021 93.5654 58.4949 93.0811 58.4949 92.1125V86.7828H61.4864V85.1825H58.4949V81.9383L56.6409 82.3171L56.1147 92.0071C56.0581 92.9483 56.3324 93.7128 56.9367 94.3025C57.5118 94.8503 58.2909 95.1245 59.2741 95.1245ZM69.7642 88.6367C69.5679 87.261 69.0134 86.5727 68.1005 86.5727C67.3282 86.5727 66.5482 87.057 65.7622 88.0256L65.9731 89.4373V94.9136H63.5928V83.055C63.5928 82.1979 63.1994 81.8259 62.4125 81.9382L62.5814 80.7793L65.5094 80.2316L65.9731 80.6113V86.5093C66.7874 85.4842 67.7911 84.9716 68.9851 84.9716C69.9254 84.9716 70.6702 85.2665 71.2179 85.8562C71.7931 86.5025 72.0819 87.3939 72.0819 88.5313V94.9136H70.5854L69.7642 88.6367ZM87.5835 95.1243C89.4238 95.1243 91.2495 94.7309 93.0607 93.9449V87.668H88.3001L87.9418 89.5631H89.2267C90.1121 89.5631 90.5544 89.9411 90.5544 90.6946V92.684C89.501 93.0054 88.5804 93.1657 87.7944 93.1657C86.4178 93.1657 85.3018 92.6754 84.4455 91.694C83.729 90.8669 83.2661 89.9566 83.0553 88.9606C82.9567 88.5123 82.9078 88.0289 82.9078 87.5103C82.9215 86.0669 83.3638 84.8403 84.2347 83.8314C85.1758 82.766 86.3484 82.2329 87.7524 82.2329C88.553 82.2329 89.2344 82.3031 89.7958 82.4437C90.0341 82.514 90.3221 82.6057 90.6598 82.7171C90.9821 82.844 91.3541 82.9983 91.7758 83.1809L92.345 81.4323C90.7293 80.7166 89.1778 80.3583 87.689 80.3583C85.499 80.3583 83.6938 81.0749 82.2753 82.5071C80.8713 83.9111 80.1693 85.688 80.1693 87.836C80.1693 89.9566 80.8575 91.7051 82.2341 93.0809C83.5961 94.4437 85.379 95.1243 87.5835 95.1243ZM101.55 87.731C101.128 87.2399 100.651 86.9939 100.117 86.9939C99.2045 86.9939 98.4322 87.3727 97.7997 88.1313L97.9685 89.669V92.765C97.9685 93.173 98.1022 93.4396 98.3688 93.5656C98.5659 93.6496 98.9448 93.6924 99.5062 93.6924L99.2534 94.9139H95.5882V87.689C95.5882 86.8601 95.1948 86.4881 94.4088 86.5721L94.5777 85.4133L97.5057 84.8664L97.9685 85.2667V86.657C97.9822 86.657 97.9968 86.6493 98.0114 86.6356C98.3619 86.1581 98.7905 85.7656 99.2962 85.4561C99.8294 85.133 100.349 84.9719 100.855 84.9719C101.57 84.9719 102.168 85.1819 102.645 85.6036L101.761 87.6676L101.55 87.731ZM107.048 92.8071C106.542 92.3305 106.281 91.7408 106.267 91.0379L105.7 90.2802H112.63C112.658 88.3979 112.173 86.9939 111.175 86.0665C110.403 85.3362 109.407 84.9719 108.184 84.9719C106.906 84.9719 105.847 85.3997 105.004 86.2568C104.091 87.1971 103.636 88.4331 103.636 89.9639C103.636 91.4099 104.056 92.6322 104.899 93.6291C105.742 94.6259 106.816 95.1239 108.122 95.1239C108.628 95.1239 109.204 95.0468 109.85 94.8925V93.5022H108.88C108.149 93.5022 107.538 93.2708 107.048 92.8071ZM110.333 88.9945C110.333 88.8402 110.313 88.6508 110.271 88.4262C110.06 87.1619 109.414 86.5302 108.332 86.5302C107.026 86.5302 106.276 87.3445 106.078 88.9739L106.709 88.9945H110.333ZM117.495 92.8071C116.989 92.3305 116.728 91.7408 116.716 91.0379L116.147 90.2802H123.077C123.105 88.3979 122.619 86.9939 121.622 86.0665C120.85 85.3362 119.854 84.9719 118.632 84.9719C117.355 84.9719 116.294 85.3997 115.451 86.2568C114.539 87.1971 114.083 88.4331 114.083 89.9639C114.083 91.4099 114.504 92.6322 115.345 93.6291C116.19 94.6259 117.262 95.1239 118.569 95.1239C119.075 95.1239 119.651 95.0468 120.297 94.8925V93.5022H119.328C118.597 93.5022 117.985 93.2708 117.495 92.8071ZM120.78 88.9945C120.78 88.8402 120.76 88.6508 120.718 88.4262C120.507 87.1619 119.861 86.5302 118.779 86.5302C117.475 86.5302 116.723 87.3445 116.525 88.9739L117.157 88.9945H120.78ZM133.208 86.1512C133.503 86.0389 133.65 85.8701 133.65 85.6455V85.1818H131.207L127.457 89.6269V80.6106L126.994 80.2318L124.066 80.7795L123.898 81.9383C124.685 81.8261 125.077 82.1981 125.077 83.0552V94.9138H127.457V91.1638C127.457 91.1089 127.48 91.0523 127.522 90.9958L127.627 90.8483C127.752 90.6803 127.9 90.7078 128.069 90.9323L131.776 94.7243C132.016 95.0192 132.281 95.1666 132.576 95.1666C132.815 95.1666 133.032 95.0681 133.23 94.8718C133.413 94.6609 133.503 94.4432 133.503 94.2186C133.503 94.0361 133.448 93.8681 133.336 93.7129L129.859 89.0998L130.828 88.0043L131.712 86.9938C132.023 86.6432 132.521 86.3612 133.208 86.1512ZM152.46 94.1344C152.46 94.3872 152.355 94.6118 152.144 94.8081C151.935 95.0189 151.703 95.1244 151.451 95.1244C151.169 95.1244 150.93 95.0052 150.736 94.7661L146.136 88.6367H144.668V92.3858C144.668 93.1161 145.152 93.4812 146.121 93.4812L145.805 94.9135H142.055V83.1389C142.055 82.3804 141.578 82.0015 140.623 82.0015L140.918 80.5478H146.343C147.812 80.5478 148.977 80.8924 149.831 81.5807C150.7 82.2827 151.133 83.2375 151.133 84.4444C151.133 86.0875 150.378 87.2609 148.866 87.9621L152.355 93.7555C152.425 93.8678 152.46 93.9947 152.46 94.1344ZM145.805 82.3804C147.617 82.3804 148.528 83.0618 148.543 84.4238C148.558 85.9547 147.608 86.7201 145.7 86.7201H144.561V82.3804H145.805ZM162.592 89.9642C162.592 93.4048 161.026 95.1242 157.896 95.1242C156.447 95.1242 155.324 94.6896 154.525 93.8188C153.71 92.9479 153.302 91.6631 153.302 89.9642C153.302 88.3768 153.723 87.1408 154.567 86.2562C155.381 85.3999 156.491 84.9713 157.896 84.9713C159.384 84.9713 160.535 85.3931 161.35 86.2348C162.178 87.1065 162.592 88.3493 162.592 89.9642ZM157.873 86.4671C159.375 86.4671 160.128 87.6396 160.128 89.9848C160.128 92.4139 159.375 93.6285 157.873 93.6285C156.456 93.6285 155.747 92.4071 155.747 89.9642C155.747 88.9245 155.915 88.1033 156.253 87.4991C156.645 86.8108 157.184 86.4671 157.873 86.4671ZM173.293 89.9642C173.293 93.4048 171.727 95.1242 168.597 95.1242C167.149 95.1242 166.025 94.6896 165.226 93.8188C164.411 92.9479 164.003 91.6631 164.003 89.9642C164.003 88.3768 164.424 87.1408 165.268 86.2562C166.082 85.3999 167.192 84.9713 168.597 84.9713C170.085 84.9713 171.236 85.3931 172.051 86.2348C172.879 87.1065 173.293 88.3493 173.293 89.9642ZM168.574 86.4671C170.077 86.4671 170.829 87.6396 170.829 89.9848C170.829 92.4139 170.077 93.6285 168.574 93.6285C167.157 93.6285 166.448 92.4071 166.448 89.9642C166.448 88.9245 166.616 88.1033 166.954 87.4991C167.346 86.8108 167.885 86.4671 168.574 86.4671ZM180.56 94.8297C179.66 95.026 178.861 95.1245 178.158 95.1245C177.176 95.1245 176.396 94.8503 175.82 94.3025C175.217 93.7128 174.942 92.9483 174.999 92.0071L175.526 82.3171L177.379 81.9383V85.1825H180.369V86.7828H177.379V92.1125C177.379 93.0811 177.787 93.5654 178.601 93.5654H180.56V94.8297ZM187.743 94.3449C188.445 93.8537 188.796 93.1586 188.796 92.2595C188.796 91.5292 188.403 90.834 187.617 90.174C187.518 90.09 187.285 89.9212 186.921 89.6692L185.424 88.6792C184.638 88.1597 184.252 87.738 184.267 87.4149C184.28 86.8535 184.689 86.5723 185.489 86.5723C186.246 86.5723 186.732 86.7412 186.942 87.078L187.195 88.026C187.265 88.3492 187.525 88.5103 187.974 88.5103C188.171 88.5103 188.382 88.4897 188.605 88.4469V86.2355C187.931 85.3929 186.88 84.972 185.447 84.972C184.366 84.972 183.516 85.2035 182.897 85.6663C182.293 86.1017 181.978 86.7266 181.95 87.5417C181.921 88.3277 182.286 89.0443 183.046 89.6897C183.228 89.8586 183.952 90.336 185.214 91.122C185.987 91.5995 186.374 92.0349 186.374 92.4283C186.374 93.1869 185.728 93.5657 184.435 93.5657H182.139V94.7872C182.897 95.0117 183.782 95.124 184.792 95.124C186.042 95.124 187.027 94.8652 187.743 94.3449Z" fill="white"/>
</mask>
<g mask="url(#mask1)">
<path fill-rule="evenodd" clip-rule="evenodd" d="M30.8571 80H192V98H30.8571V80Z" fill="#002868"/>
</g>
<path fill-rule="evenodd" clip-rule="evenodd" d="M111.665 7.94867L113.696 6.88359L115.727 7.94867L115.337 5.69144L116.981 4.09652L114.71 3.76698L113.696 1.71544L112.68 3.76698L110.41 4.09652L112.053 5.69144L111.665 7.94867Z" fill="#BF0A30"/>
<path fill-rule="evenodd" clip-rule="evenodd" d="M98.3925 32.0479L97.1369 33.3833L95.3231 33.1076L96.2095 34.7133L95.3868 36.3492L97.1898 36.0046L98.4961 37.2893L98.7239 35.4736L100.353 34.6293L98.6915 33.8539L98.3925 32.0479Z" fill="#BF0A30"/>
<path fill-rule="evenodd" clip-rule="evenodd" d="M93.4255 31.2592L92.7227 31.8483L91.8374 31.6049L92.1828 32.4524L91.6787 33.217L92.5931 33.1524L93.1653 33.8675L93.3866 32.979L94.2449 32.6581L93.4665 32.1724L93.4255 31.2592Z" fill="#BF0A30"/>
<path fill-rule="evenodd" clip-rule="evenodd" d="M107.453 14.9992L110.272 13.5195L113.092 14.9992L112.553 11.8664L114.836 9.64794L111.683 9.19024L110.272 6.34178L108.862 9.19024L105.71 9.64794L107.991 11.8664L107.453 14.9992Z" fill="#BF0A30"/>
<path fill-rule="evenodd" clip-rule="evenodd" d="M115.704 10.6778L117.53 12.4504L117.099 14.9586L119.356 13.775L121.612 14.9586L121.179 12.4504L123.006 10.6778L120.484 10.3116L119.356 8.0318L118.226 10.3116L115.704 10.6778Z" fill="#BF0A30"/>
<path fill-rule="evenodd" clip-rule="evenodd" d="M115.88 16.5557L114.386 13.5381L112.892 16.5557L109.554 17.0392L111.971 19.389L111.4 22.706L114.386 21.1401L117.374 22.706L116.802 19.389L119.219 17.0392L115.88 16.5557Z" fill="#BF0A30"/>
<path fill-rule="evenodd" clip-rule="evenodd" d="M108.405 26.003L110.661 27.1865L110.229 24.6794L112.055 22.9057L109.532 22.5396L108.405 20.2608L107.276 22.5396L104.753 22.9057L106.581 24.6794L106.148 27.1865L108.405 26.003Z" fill="#C11531"/>
<path fill-rule="evenodd" clip-rule="evenodd" d="M116.855 7.49754L116.479 8.44308L117.46 8.16631L118.244 8.81677L118.284 7.798L119.146 7.25631L118.189 6.90308L117.936 5.91769L117.306 6.71785L116.29 6.65323L116.855 7.49754Z" fill="#BF0A30"/>
<path fill-rule="evenodd" clip-rule="evenodd" d="M102.084 27.6835L101.203 28.8024L99.7765 28.7109L100.571 29.8944L100.043 31.2169L101.416 30.8303L102.514 31.7392L102.569 30.3166L103.777 29.5552L102.437 29.063L102.084 27.6835Z" fill="#BF0A30"/>
<path fill-rule="evenodd" clip-rule="evenodd" d="M114.255 24.6262L115.04 25.2767L115.079 24.2579L115.941 23.7151L114.984 23.363L114.731 22.3776L114.1 23.1777L113.084 23.1131L113.649 23.9574L113.274 24.903L114.255 24.6262Z" fill="#BF0A30"/>
<path fill-rule="evenodd" clip-rule="evenodd" d="M118.491 31.0825L117.86 31.8826L116.844 31.818L117.409 32.6623L117.033 33.6079L118.015 33.3311L118.799 33.9805L118.839 32.9628L119.7 32.42L118.743 32.0679L118.491 31.0825Z" fill="#BF0A30"/>
<path fill-rule="evenodd" clip-rule="evenodd" d="M88.3641 26.5004L86.0839 27.6333L88.3716 28.7501L88.7484 31.2647L90.5212 29.4361L93.0345 29.8582L91.8394 27.6118L93.0162 25.3567L90.5071 25.7972L88.7214 23.9825L88.3641 26.5004Z" fill="#BF0A30"/>
<path fill-rule="evenodd" clip-rule="evenodd" d="M96.8119 30.6587L98.833 30.9215L97.8138 29.1596L98.6894 27.3246L96.6964 27.7478L95.2152 26.3489L95.0025 28.3713L93.2114 29.3438L95.0748 30.1709L95.4473 32.1696L96.8119 30.6587Z" fill="#BF0A30"/>
<path fill-rule="evenodd" clip-rule="evenodd" d="M109.449 30.4462L108.857 29.8862L108.772 30.695L108.056 31.0838L108.799 31.4144L108.95 32.2156L109.496 31.6104L110.304 31.7159L109.897 31.0105L110.246 30.2761L109.449 30.4462Z" fill="#BF0A30"/>
<path fill-rule="evenodd" clip-rule="evenodd" d="M101.639 22.2452L99.9157 20.3714L99.4731 22.8752L97.154 23.9306L99.405 25.1249L99.6955 27.6514L101.528 25.8842L104.027 26.3892L102.908 24.1051L104.163 21.8909L101.639 22.2452Z" fill="#BF0A30"/>
<path fill-rule="evenodd" clip-rule="evenodd" d="M113.439 33.0849L111.35 33.8668L109.522 32.5949L109.622 34.8155L107.842 36.1584L109.994 36.7497L110.722 38.8529L111.952 36.9963L114.18 36.9532L112.79 35.214L113.439 33.0849Z" fill="#BF0A30"/>
<path fill-rule="evenodd" clip-rule="evenodd" d="M120.793 18.2193L118.271 18.5844L120.097 20.3581L119.665 22.8651L121.922 21.6816L124.178 22.8651L123.747 20.3581L125.573 18.5844L123.05 18.2193L121.922 15.9394L120.793 18.2193Z" fill="#BF0A30"/>
<path fill-rule="evenodd" clip-rule="evenodd" d="M120.795 25.7115L119.666 23.4328L118.537 25.7115L116.015 26.0777L117.842 27.8514L117.41 30.3574L119.666 29.1749L121.923 30.3574L121.491 27.8514L123.317 26.0777L120.795 25.7115Z" fill="#BF0A30"/>
<path fill-rule="evenodd" clip-rule="evenodd" d="M117.04 28.1915L114.518 27.8253L113.39 25.5455L112.261 27.8253L109.739 28.1915L111.565 29.9641L111.133 32.4723L113.39 31.2887L115.646 32.4723L115.215 29.9641L117.04 28.1915Z" fill="#BF0A30"/>
<path fill-rule="evenodd" clip-rule="evenodd" d="M101.704 12.8464L102.596 15.2286L103.949 13.0736L106.495 12.9649L104.86 11.0146L105.544 8.56563L103.179 9.5144L101.055 8.11009L101.23 10.6462L99.2328 12.2261L101.704 12.8464Z" fill="#302D7E"/>
<path fill-rule="evenodd" clip-rule="evenodd" d="M106.22 16.7018L105.092 14.423L103.963 16.7018L101.44 17.0679L103.267 18.8416L102.835 21.3476L105.092 20.1652L107.348 21.3476L106.916 18.8416L108.742 17.0679L106.22 16.7018Z" fill="#002868"/>
<path fill-rule="evenodd" clip-rule="evenodd" d="M105.095 -0.000320435L103.861 2.49276L101.104 2.89337L103.099 4.83399L102.629 7.57476L105.095 6.28245L107.562 7.57476L107.092 4.83399L109.087 2.89337L106.329 2.49276L105.095 -0.000320435Z" fill="#002868"/>
<path fill-rule="evenodd" clip-rule="evenodd" d="M93.2147 12.1301L95.4517 15.222L96.5518 11.5701L100.191 10.4027L97.0484 8.23167L97.0603 4.41829L94.0179 6.72721L90.385 5.53829L91.6492 9.13844L89.3918 12.2163L93.2147 12.1301Z" fill="#002868"/>
<path fill-rule="evenodd" clip-rule="evenodd" d="M89.4659 15.6072L86.3674 14.8663L87.6629 17.7697L86.0003 20.4803L89.169 20.1475L91.2397 22.5641L91.9004 19.4551L94.8446 18.2381L92.0851 16.6475L91.8335 13.4803L89.4659 15.6072Z" fill="#002868"/>
<path fill-rule="evenodd" clip-rule="evenodd" d="M95.3043 21.7583L94.5162 20.1644L93.7259 21.7583L91.9597 22.0156L93.2379 23.2584L92.9367 25.0116L94.5162 24.1824L96.0946 25.0116L95.7934 23.2584L97.0717 22.0156L95.3043 21.7583Z" fill="#002868"/>
<path fill-rule="evenodd" clip-rule="evenodd" d="M101.711 15.3146L99.1635 15.3351L97.7017 13.2512L96.9319 15.6754L94.4942 16.4163L96.5692 17.8949L96.5228 20.4386L98.574 18.9266L100.982 19.7558L100.176 17.3446L101.711 15.3146Z" fill="#002868"/>
<path fill-rule="evenodd" clip-rule="evenodd" d="M98.2111 3.55892L98.9776 4.57445L99.3188 3.35107L100.526 2.93753L99.4624 2.2343L99.4408 0.963531L98.4421 1.75184L97.2243 1.38138L97.6691 2.57245L96.9382 3.61384L98.2111 3.55892Z" fill="#002868"/>
<path fill-rule="evenodd" clip-rule="evenodd" d="M99.8853 6.91277L100.788 7.38554L100.615 6.384L101.346 5.67323L100.337 5.52785L99.8853 4.61569L99.4341 5.52785L98.4235 5.67323L99.1544 6.384L98.9817 7.38554L99.8853 6.91277Z" fill="#002868"/>
<path fill-rule="evenodd" clip-rule="evenodd" d="M109.48 48.1819C111.534 53.5883 113.991 56.1384 115.47 56.6795C116.117 56.9161 116.449 57.6312 116.212 58.2767C116.027 58.7806 115.549 59.0933 115.04 59.0933C114.898 59.0933 114.753 59.0687 114.611 59.0168C111.892 58.0227 109.171 54.3949 107.146 49.0642C104.959 43.3081 103.921 36.3493 104.224 29.4699C104.255 28.783 104.839 28.253 105.526 28.2811C106.215 28.3112 106.748 28.8924 106.718 29.5791C106.429 36.1284 107.41 42.735 109.48 48.1819ZM102.092 34.502C102.779 34.4662 103.368 34.9921 103.404 35.6786C103.988 46.5702 100.481 57.4342 96.8966 61.2538C96.6509 61.5155 96.3186 61.6479 95.9853 61.6479C95.6797 61.6479 95.3736 61.5367 95.1328 61.3119C94.6298 60.8421 94.6037 60.0545 95.0746 59.5525C97.8944 56.5477 101.492 46.6255 100.912 35.8114C100.875 35.1251 101.403 34.5387 102.092 34.502ZM103.312 49.9177C103.312 49.2301 103.87 48.6728 104.56 48.6728C105.249 48.6728 105.807 49.2301 105.807 49.9177C105.807 52.5817 103.213 60.054 99.7656 64.5237C99.5198 64.8425 99.1498 65.0097 98.7756 65.0097C98.5101 65.0097 98.2425 64.9254 98.0157 64.7515C97.4694 64.3323 97.3673 63.5508 97.7875 63.006C101.168 58.6231 103.312 51.6767 103.312 49.9177ZM95.2113 50.5039C95.4321 50.6627 95.6872 50.7389 95.94 50.7389C96.3274 50.7389 96.7094 50.5595 96.9533 50.222C98.5357 48.0325 99.6226 40.9842 99.8244 39.5937C99.9232 38.9132 99.4504 38.282 98.7682 38.1834C98.0862 38.0842 97.4534 38.5567 97.3544 39.2368C96.9207 42.2239 95.8783 47.4523 94.9287 48.7664C94.5258 49.3238 94.6523 50.102 95.2113 50.5039ZM107.583 53.7449C106.899 53.6849 106.29 54.1872 106.227 54.872C106.04 56.9281 105.199 62.2411 101.439 67.1604C101.021 67.7072 101.126 68.4883 101.674 68.9051C101.9 69.0769 102.166 69.16 102.43 69.16C102.806 69.16 103.178 68.9913 103.423 68.6699C107.577 63.2359 108.506 57.3679 108.713 55.0972C108.775 54.4126 108.269 53.8071 107.583 53.7449ZM95.1812 54.6427C95.7742 54.9931 95.9703 55.7564 95.6191 56.348C95.3861 56.7404 94.9706 56.9587 94.5443 56.9587C94.328 56.9587 94.1091 56.9027 93.9096 56.7848C93.4537 56.5157 92.9911 56.2008 92.5449 55.8629C91.9729 56.3938 91.3795 56.8437 90.8298 57.0802C90.6688 57.1493 90.5013 57.1822 90.3365 57.1822C89.8533 57.1822 89.3933 56.9004 89.1899 56.4298C88.9172 55.7985 89.2091 55.0661 89.8419 54.7939C90.0634 54.6988 90.3536 54.4846 90.6749 54.1989C90.1877 53.6826 89.808 53.1872 89.609 52.7783C89.3081 52.1598 89.5667 51.4153 90.1867 51.1151C90.8069 50.8151 91.5533 51.0729 91.8542 51.6913C91.9263 51.8392 92.1103 52.0801 92.3759 52.3699C92.6611 52.0151 92.9277 51.6579 93.1528 51.3253C93.5384 50.7551 94.3138 50.6052 94.8851 50.9895C95.4564 51.3741 95.607 52.1476 95.2216 52.7176C95.0157 53.0219 94.6709 53.4941 94.243 54.021C94.5431 54.2406 94.858 54.4516 95.1812 54.6427Z" fill="#008AC4"/>
</svg>
